<?xml version="1.0" encoding="utf-8"?>
<!-- Generator: Adobe Illustrator 16.0.0, SVG Export Plug-In . SVG Version: 6.00 Build 0)  -->
<!DOCTYPE svg PUBLIC "-//W3C//DTD SVG 1.1//EN" "http://www.w3.org/Graphics/SVG/1.1/DTD/svg11.dtd">
<svg version="1.1" xmlns="http://www.w3.org/2000/svg" xmlns:xlink="http://www.w3.org/1999/xlink" x="0px" y="0px" width="36px"
	 height="28px" viewBox="0 0 36 28" enable-background="new 0 0 36 28" xml:space="preserve">
<g id="Layer_2" display="none">
	<rect display="inline" fill="#FF0000" width="18" height="14"/>
	<rect x="18" display="inline" fill="#FF0000" width="18" height="14"/>
	<rect y="14" display="inline" fill="#FF0000" width="18" height="14"/>
	<rect x="18" y="14" display="inline" fill="#FF0000" width="18" height="14"/>
</g>
<g id="Layer_1">
	<g>
		<path fill="#FFFFFF" d="M14.583,7.25c0,0.414-0.336,0.75-0.75,0.75h-3.25v3.25c0,0.414-0.336,0.75-0.75,0.75h-1.5
			c-0.414,0-0.75-0.336-0.75-0.75V8h-3.25c-0.414,0-0.75-0.336-0.75-0.75v-1.5C3.583,5.336,3.919,5,4.333,5h3.25V1.75
			C7.583,1.336,7.919,1,8.333,1h1.5c0.414,0,0.75,0.336,0.75,0.75V5h3.25c0.414,0,0.75,0.336,0.75,0.75V7.25z"/>
	</g>
	<g>
		<path fill="#FFFFFF" d="M31.063,10L30,11.063c-0.141,0.141-0.336,0.219-0.531,0.219s-0.391-0.078-0.531-0.219l-2.297-2.297
			l-2.297,2.297c-0.141,0.141-0.336,0.219-0.531,0.219s-0.391-0.078-0.531-0.219L22.219,10C22.078,9.859,22,9.664,22,9.469
			s0.078-0.391,0.219-0.531l2.297-2.297l-2.297-2.297C22.078,4.203,22,4.008,22,3.813s0.078-0.391,0.219-0.531l1.063-1.063
			C23.422,2.078,23.617,2,23.813,2s0.391,0.078,0.531,0.219l2.297,2.297l2.297-2.297C29.078,2.078,29.273,2,29.469,2
			S29.859,2.078,30,2.219l1.063,1.063c0.141,0.141,0.219,0.336,0.219,0.531s-0.078,0.391-0.219,0.531l-2.297,2.297l2.297,2.297
			c0.141,0.141,0.219,0.336,0.219,0.531S31.203,9.859,31.063,10z"/>
	</g>
	<g>
		<path d="M14.583,21.25c0,0.414-0.336,0.75-0.75,0.75h-3.25v3.25c0,0.414-0.336,0.75-0.75,0.75h-1.5c-0.414,0-0.75-0.336-0.75-0.75
			V22h-3.25c-0.414,0-0.75-0.336-0.75-0.75v-1.5c0-0.414,0.336-0.75,0.75-0.75h3.25v-3.25c0-0.414,0.336-0.75,0.75-0.75h1.5
			c0.414,0,0.75,0.336,0.75,0.75V19h3.25c0.414,0,0.75,0.336,0.75,0.75V21.25z"/>
	</g>
	<g>
		<path d="M31.063,24L30,25.063c-0.141,0.141-0.336,0.219-0.531,0.219s-0.391-0.078-0.531-0.219l-2.297-2.297l-2.297,2.297
			c-0.141,0.141-0.336,0.219-0.531,0.219s-0.391-0.078-0.531-0.219L22.219,24C22.078,23.859,22,23.664,22,23.469
			s0.078-0.391,0.219-0.531l2.297-2.297l-2.297-2.297C22.078,18.203,22,18.008,22,17.813s0.078-0.391,0.219-0.531l1.063-1.063
			C23.422,16.078,23.617,16,23.813,16s0.391,0.078,0.531,0.219l2.297,2.297l2.297-2.297C29.078,16.078,29.273,16,29.469,16
			s0.391,0.078,0.531,0.219l1.063,1.063c0.141,0.141,0.219,0.336,0.219,0.531s-0.078,0.391-0.219,0.531l-2.297,2.297l2.297,2.297
			c0.141,0.141,0.219,0.336,0.219,0.531S31.203,23.859,31.063,24z"/>
	</g>
</g>
</svg>
